<?xml version="1.0" encoding="utf-8"?>
<!-- Generator: Adobe Illustrator 28.0.0, SVG Export Plug-In . SVG Version: 6.00 Build 0)  -->
<svg version="1.1" id="レイヤー_1" xmlns="http://www.w3.org/2000/svg" xmlns:xlink="http://www.w3.org/1999/xlink" x="0px"
	 y="0px" viewBox="0 0 31.6 31.6" style="enable-background:new 0 0 31.6 31.6;" xml:space="preserve">
<style type="text/css">
	.st0{fill:#ECD53E;}
	.st1{fill:#FFFFFF;stroke:#000000;stroke-width:0.75;stroke-miterlimit:10;}
</style>
<path class="st0" d="M26.3,31.6h-21c-2.9,0-5.3-2.4-5.3-5.3v-21C0,2.4,2.4,0,5.3,0h21c2.9,0,5.3,2.4,5.3,5.3v21
	C31.6,29.2,29.2,31.6,26.3,31.6z"/>
<path class="st1" d="M26.2,18.8c-0.7,5.3-5,7.7-10.7,7.7c-6.8,0-9.7-3.7-9.7-6.3c0-1.3,0.3-2.5,0.9-3.8c-0.2,0-0.3,0-0.5,0
	c-0.6,0-0.8,0.1-1.1-0.2c-0.3-0.2,0.1-0.8,0.3-1.1c0.2-0.2-0.1-1,0.5-1.1c0.3,0,1.1,0.5,1.3,0.9c0,0,0,0,0-0.1
	c-0.6-0.4-1.1-1.4-1.2-2.6c-0.2-0.1-0.3-0.2-0.3-0.3c-0.1-0.2-0.2-0.3-0.2-0.4c0-0.1,0-0.1,0-0.2c0.1-0.2,0.3-0.4,0.5-0.5
	c0-0.2,0.1-0.4,0.1-0.6c1-3.8,5.3-5.9,9.1-4.9c0.9,0.2,1.6,0.6,2.3,1.2c0.6-0.6,1.3-1,2.1-1.3c1.2-0.2,1.5,0.1,1.6,0.5
	c0.1,0.4-0.2,0.8-1.3,1c0.9,0.2,1,0.4,1,0.8c-0.1,0.3-0.3,0.5-1.2,0.4c-0.5-0.2-0.9-0.2-1.2-0.2c1.2,1.5,1.5,3.8,1.1,5.9
	C24.6,11.1,27.8,5.9,26.2,18.8z"/>
</svg>
